<mxfile host="app.diagrams.net" modified="2021-05-08T06:24:53.539Z" agent="5.0 (Windows NT 10.0; WOW64) AppleWebKit/537.36 (KHTML, like Gecko) Chrome/89.0.4389.128 Safari/537.36" etag="3dIYFpMR4063vt9NQMh7" version="14.6.10" type="github">
  <diagram id="kgpKYQtTHZ0yAKxKKP6v" name="Page-1">
    <mxGraphModel dx="868" dy="450" grid="1" gridSize="10" guides="1" tooltips="1" connect="1" arrows="1" fold="1" page="1" pageScale="1" pageWidth="850" pageHeight="1100" math="0" shadow="0">
      <root>
        <mxCell id="0" />
        <mxCell id="1" parent="0" />
        <mxCell id="3nuBFxr9cyL0pnOWT2aG-1" value="统计Service" style="shape=umlLifeline;perimeter=lifelinePerimeter;container=1;collapsible=0;recursiveResize=0;rounded=0;shadow=0;strokeWidth=1;sketch=1;fillColor=#d5e8d4;strokeColor=#82b366;" parent="1" vertex="1">
          <mxGeometry x="200" y="80" width="100" height="420" as="geometry" />
        </mxCell>
        <mxCell id="oa-x_957oaK8kpjsTBqi-7" value="" style="html=1;points=[];perimeter=orthogonalPerimeter;sketch=1;" vertex="1" parent="3nuBFxr9cyL0pnOWT2aG-1">
          <mxGeometry x="50" y="320" width="10" height="40" as="geometry" />
        </mxCell>
        <mxCell id="oa-x_957oaK8kpjsTBqi-8" value="&lt;span style=&quot;text-align: center&quot;&gt;6.汇总指标项&lt;/span&gt;" style="edgeStyle=orthogonalEdgeStyle;html=1;align=left;spacingLeft=2;endArrow=block;rounded=0;entryX=1;entryY=0;sketch=1;" edge="1" target="oa-x_957oaK8kpjsTBqi-7" parent="3nuBFxr9cyL0pnOWT2aG-1">
          <mxGeometry relative="1" as="geometry">
            <mxPoint x="55" y="300" as="sourcePoint" />
            <Array as="points">
              <mxPoint x="85" y="300" />
            </Array>
          </mxGeometry>
        </mxCell>
        <mxCell id="oa-x_957oaK8kpjsTBqi-10" value="" style="html=1;points=[];perimeter=orthogonalPerimeter;sketch=1;" vertex="1" parent="3nuBFxr9cyL0pnOWT2aG-1">
          <mxGeometry x="50" y="110" width="10" height="80" as="geometry" />
        </mxCell>
        <mxCell id="oa-x_957oaK8kpjsTBqi-15" value="" style="html=1;points=[];perimeter=orthogonalPerimeter;sketch=1;" vertex="1" parent="3nuBFxr9cyL0pnOWT2aG-1">
          <mxGeometry x="46" y="213" width="10" height="80" as="geometry" />
        </mxCell>
        <mxCell id="oa-x_957oaK8kpjsTBqi-16" value="7.展示统计列表" style="endArrow=block;endFill=1;html=1;edgeStyle=orthogonalEdgeStyle;align=left;verticalAlign=top;rounded=0;endSize=6;sketch=1;" edge="1" parent="3nuBFxr9cyL0pnOWT2aG-1">
          <mxGeometry x="0.2461" y="-30" relative="1" as="geometry">
            <mxPoint x="40" y="390" as="sourcePoint" />
            <mxPoint x="-110" y="390" as="targetPoint" />
            <Array as="points">
              <mxPoint x="40" y="390" />
            </Array>
            <mxPoint as="offset" />
          </mxGeometry>
        </mxCell>
        <mxCell id="3nuBFxr9cyL0pnOWT2aG-5" value="提供分页接口的服务" style="shape=umlLifeline;perimeter=lifelinePerimeter;container=1;collapsible=0;recursiveResize=0;rounded=0;shadow=0;strokeWidth=1;sketch=1;fillColor=#ffe6cc;strokeColor=#d79b00;" parent="1" vertex="1">
          <mxGeometry x="385" y="80" width="120" height="420" as="geometry" />
        </mxCell>
        <mxCell id="3nuBFxr9cyL0pnOWT2aG-6" value="" style="points=[];perimeter=orthogonalPerimeter;rounded=0;shadow=0;strokeWidth=1;sketch=1;" parent="3nuBFxr9cyL0pnOWT2aG-5" vertex="1">
          <mxGeometry x="50" y="110" width="10" height="80" as="geometry" />
        </mxCell>
        <mxCell id="3nuBFxr9cyL0pnOWT2aG-8" value="2.请求分页接口" style="verticalAlign=bottom;endArrow=block;entryX=-0.2;entryY=0.125;shadow=0;strokeWidth=1;entryDx=0;entryDy=0;entryPerimeter=0;sketch=1;" parent="1" target="3nuBFxr9cyL0pnOWT2aG-6" edge="1">
          <mxGeometry relative="1" as="geometry">
            <mxPoint x="265" y="200" as="sourcePoint" />
            <Array as="points">
              <mxPoint x="425" y="200" />
            </Array>
          </mxGeometry>
        </mxCell>
        <mxCell id="3nuBFxr9cyL0pnOWT2aG-9" value="3.返回分页结果" style="verticalAlign=bottom;endArrow=block;entryX=1;entryY=0;shadow=0;strokeWidth=1;sketch=1;" parent="1" source="3nuBFxr9cyL0pnOWT2aG-6" edge="1">
          <mxGeometry relative="1" as="geometry">
            <mxPoint x="330" y="240" as="sourcePoint" />
            <mxPoint x="270" y="240" as="targetPoint" />
          </mxGeometry>
        </mxCell>
        <mxCell id="3nuBFxr9cyL0pnOWT2aG-10" value="4.根据分页的结果查询其他指标" style="verticalAlign=bottom;endArrow=block;endSize=6;exitX=1;exitY=0.95;shadow=0;strokeWidth=1;endFill=1;sketch=1;" parent="1" edge="1">
          <mxGeometry relative="1" as="geometry">
            <mxPoint x="600" y="316" as="targetPoint" />
            <mxPoint x="270" y="316" as="sourcePoint" />
          </mxGeometry>
        </mxCell>
        <mxCell id="oa-x_957oaK8kpjsTBqi-1" value="数据库" style="shape=umlLifeline;perimeter=lifelinePerimeter;container=1;collapsible=0;recursiveResize=0;rounded=0;shadow=0;strokeWidth=1;sketch=1;fillColor=#fff2cc;strokeColor=#d6b656;" vertex="1" parent="1">
          <mxGeometry x="555" y="80" width="120" height="420" as="geometry" />
        </mxCell>
        <mxCell id="oa-x_957oaK8kpjsTBqi-2" value="" style="points=[];perimeter=orthogonalPerimeter;rounded=0;shadow=0;strokeWidth=1;sketch=1;" vertex="1" parent="oa-x_957oaK8kpjsTBqi-1">
          <mxGeometry x="50" y="220" width="10" height="70" as="geometry" />
        </mxCell>
        <mxCell id="oa-x_957oaK8kpjsTBqi-9" value="5.获取多个指标结果" style="html=1;verticalAlign=bottom;endArrow=block;endSize=6;rounded=0;edgeStyle=orthogonalEdgeStyle;entryX=0.51;entryY=0.55;entryDx=0;entryDy=0;entryPerimeter=0;endFill=1;sketch=1;" edge="1" parent="1">
          <mxGeometry relative="1" as="geometry">
            <mxPoint x="595" y="349" as="sourcePoint" />
            <mxPoint x="256" y="350" as="targetPoint" />
            <Array as="points">
              <mxPoint x="595" y="350" />
            </Array>
          </mxGeometry>
        </mxCell>
        <mxCell id="oa-x_957oaK8kpjsTBqi-11" value="view" style="shape=umlLifeline;perimeter=lifelinePerimeter;whiteSpace=wrap;html=1;container=1;collapsible=0;recursiveResize=0;outlineConnect=0;sketch=1;fillColor=#dae8fc;strokeColor=#6c8ebf;" vertex="1" parent="1">
          <mxGeometry x="30" y="80" width="100" height="420" as="geometry" />
        </mxCell>
        <mxCell id="oa-x_957oaK8kpjsTBqi-12" value="" style="html=1;points=[];perimeter=orthogonalPerimeter;sketch=1;" vertex="1" parent="oa-x_957oaK8kpjsTBqi-11">
          <mxGeometry x="45" y="60" width="10" height="350" as="geometry" />
        </mxCell>
        <mxCell id="oa-x_957oaK8kpjsTBqi-13" value="1.请求统计列表" style="endArrow=block;endFill=1;html=1;edgeStyle=orthogonalEdgeStyle;align=left;verticalAlign=top;rounded=0;endSize=6;sketch=1;" edge="1" parent="oa-x_957oaK8kpjsTBqi-11">
          <mxGeometry x="-0.4667" y="30" relative="1" as="geometry">
            <mxPoint x="60" y="70" as="sourcePoint" />
            <mxPoint x="210" y="70" as="targetPoint" />
            <mxPoint as="offset" />
          </mxGeometry>
        </mxCell>
      </root>
    </mxGraphModel>
  </diagram>
</mxfile>
